<svg id="ログインアイコン3" xmlns="http://www.w3.org/2000/svg" width="19.941" height="23.396" viewBox="0 0 19.941 23.396">
  <path id="Path_6411" data-name="Path 6411" d="M170.36,0V7.946h-1.527V1.527H158.067l3.421,2.315a1.407,1.407,0,0,1,.618,1.165v13.08h6.726v-5.2h1.527v6.724h-8.253v3.241a.541.541,0,0,1-.844.448l-5.452-3.689V0Z" transform="translate(-155.81)" fill="#c00000"/>
  <path id="Path_6412" data-name="Path 6412" d="M46.512,166.742a.216.216,0,0,0,.356.165l3.566-3.018-3.566-3.018a.216.216,0,0,0-.356.165v1.526H37.79v2.653h8.722v1.526Z" transform="translate(-30.491 -153.471)" fill="#c00000"/>
</svg>
