<svg xmlns="http://www.w3.org/2000/svg" width="21.5" height="21.5" viewBox="0 0 21.5 21.5">
  <g id="Group_22180" data-name="Group 22180" transform="translate(19291.75 24338.51)">
    <path id="Path_6343" data-name="Path 6343" d="M31,22.154V19.846a1.008,1.008,0,0,0-1.008-1.008h-.485a.985.985,0,0,1-.931-.646c-.077-.192-.154-.377-.238-.562a1,1,0,0,1,.208-1.123l.338-.338a1.008,1.008,0,0,0,0-1.423l-1.631-1.631a1.008,1.008,0,0,0-1.423,0l-.346.354a1.015,1.015,0,0,1-1.123.2,5.969,5.969,0,0,0-.554-.231.985.985,0,0,1-.646-.9v-.5A1.008,1.008,0,0,0,22.154,11H19.846a1.008,1.008,0,0,0-1.008,1.008v.531a1,1,0,0,1-.646.938,5.315,5.315,0,0,0-.538.223,1.015,1.015,0,0,1-1.123-.2l-.362-.369a1.008,1.008,0,0,0-1.423,0l-1.631,1.631a1.008,1.008,0,0,0,0,1.423l.377.377a1,1,0,0,1,.2,1.115c-.077.177-.154.354-.215.531a1,1,0,0,1-.938.646h-.531A1.008,1.008,0,0,0,11,19.846v2.308a1.008,1.008,0,0,0,1.008,1.008h.531a1,1,0,0,1,.938.646c.062.177.138.354.215.531a1,1,0,0,1-.2,1.115l-.377.377a1.008,1.008,0,0,0,0,1.423l1.631,1.631a1.008,1.008,0,0,0,1.423,0l.362-.369a1.015,1.015,0,0,1,1.123-.2,5.315,5.315,0,0,0,.538.223,1,1,0,0,1,.646.923v.515A1.008,1.008,0,0,0,19.846,31h2.308a1.008,1.008,0,0,0,1.008-1.008v-.531a.985.985,0,0,1,.646-.931,5.971,5.971,0,0,0,.554-.231,1.015,1.015,0,0,1,1.123.2l.346.354a1.008,1.008,0,0,0,1.423,0l1.631-1.631a1.008,1.008,0,0,0,0-1.423l-.338-.338a1,1,0,0,1-.208-1.123c.085-.185.162-.369.238-.562a.985.985,0,0,1,.931-.646h.485A1.008,1.008,0,0,0,31,22.154Z" transform="translate(-19302 -24348.76)" fill="none" stroke="#333" stroke-linecap="round" stroke-linejoin="round" stroke-width="1.5"/>
    <circle id="Ellipse_54" data-name="Ellipse 54" cx="4.81" cy="4.81" r="4.81" transform="translate(-19285.811 -24332.57)" fill="none" stroke="#333" stroke-linecap="round" stroke-linejoin="round" stroke-width="1.5"/>
  </g>
</svg>
