<svg xmlns="http://www.w3.org/2000/svg" width="15.674" height="23.301" viewBox="0 0 15.674 23.301">
  <g id="電球アイコン13" transform="translate(-83.785)">
    <path id="Path_6398" data-name="Path 6398" d="M99.46,7.837a7.837,7.837,0,1,0-14.594,3.968h0l0,0,0,.009h0a13.75,13.75,0,0,0,1.772,2.222,5.845,5.845,0,0,1,.683.911,1.675,1.675,0,0,1,.25.8v4.343a2.426,2.426,0,0,0,2.426,2.426h.348a1.42,1.42,0,0,0,2.539,0h.348a2.426,2.426,0,0,0,2.426-2.426V15.749h0a1.675,1.675,0,0,1,.25-.8,8.832,8.832,0,0,1,1.127-1.407,9.8,9.8,0,0,0,1.328-1.726h0l0-.007,0-.006h0A7.782,7.782,0,0,0,99.46,7.837Zm-5.3,13.178a1.3,1.3,0,0,1-.924.383H90.005A1.307,1.307,0,0,1,88.7,20.092v-.242l5.467,1.162Zm.383-.924a1.314,1.314,0,0,1-.023.233L88.7,19.086V17.56L94.546,18.8Zm0-2.052L88.7,16.8v-.5h5.847Zm2.863-6.793,0,.008,0,.005A12.92,12.92,0,0,1,95.756,13.3a6.872,6.872,0,0,0-.813,1.094,3.145,3.145,0,0,0-.316.78H88.618a3.127,3.127,0,0,0-.316-.78,9.721,9.721,0,0,0-1.269-1.6,8.732,8.732,0,0,1-1.189-1.533l0-.006,0-.007a6.718,6.718,0,1,1,11.573,0Z" transform="translate(0 0)" fill="#f3e900"/>
  </g>
</svg>
