<svg xmlns="http://www.w3.org/2000/svg" width="30.615" height="16.838" viewBox="0 0 30.615 16.838">
  <g id="attachment-clip_icon-icons.com_72870" transform="translate(0 -114.75)">
    <g id="attachment" transform="translate(0 114.75)">
      <path id="Path_6534" data-name="Path 6534" d="M8.419,131.588a8.419,8.419,0,0,1,0-16.838H24.492a6.123,6.123,0,0,1,0,12.246H11.481a3.827,3.827,0,0,1,0-7.654H22.961v2.3H11.481a1.531,1.531,0,0,0,0,3.062H24.492a3.827,3.827,0,0,0,0-7.654H8.419a6.123,6.123,0,0,0,0,12.246H22.961v2.3Z" transform="translate(0 -114.75)" fill="#5f5f5f"/>
    </g>
  </g>
</svg>
