<svg id="Group_21474" data-name="Group 21474" xmlns="http://www.w3.org/2000/svg" width="15.911" height="15.911" viewBox="0 0 15.911 15.911">
  <g id="Path_6432" data-name="Path 6432" fill="#fff">
    <path d="M 11.45621013641357 15.41139984130859 L 4.45518970489502 15.41139984130859 C 2.274289846420288 15.41139984130859 0.4999999105930328 13.63710975646973 0.4999999105930328 11.45621013641357 L 0.4999999105930328 4.45518970489502 C 0.4999999105930328 2.274289846420288 2.274289846420288 0.4999999105930328 4.45518970489502 0.4999999105930328 L 11.45621013641357 0.4999999105930328 C 13.63710975646973 0.4999999105930328 15.41139984130859 2.274289846420288 15.41139984130859 4.45518970489502 L 15.41139984130859 11.45621013641357 C 15.41139984130859 13.63710975646973 13.63710975646973 15.41139984130859 11.45621013641357 15.41139984130859 Z" stroke="none"/>
    <path d="M 4.45518970489502 1 C 2.549989700317383 1 1 2.549989700317383 1 4.45518970489502 L 1 11.45621013641357 C 1 13.36141014099121 2.549989700317383 14.91139984130859 4.45518970489502 14.91139984130859 L 11.45621013641357 14.91139984130859 C 13.36141014099121 14.91139984130859 14.91139984130859 13.36141014099121 14.91139984130859 11.45621013641357 L 14.91139984130859 4.45518970489502 C 14.91139984130859 2.549989700317383 13.36141014099121 1 11.45621013641357 1 L 4.45518970489502 1 M 4.45518970489502 0 L 11.45621013641357 0 C 13.91674041748047 0 15.91139984130859 1.994660377502441 15.91139984130859 4.45518970489502 L 15.91139984130859 11.45621013641357 C 15.91139984130859 13.91674041748047 13.91674041748047 15.91139984130859 11.45621013641357 15.91139984130859 L 4.45518970489502 15.91139984130859 C 1.994660377502441 15.91139984130859 0 13.91674041748047 0 11.45621013641357 L 0 4.45518970489502 C 0 1.994660377502441 1.994660377502441 0 4.45518970489502 0 Z" stroke="none" fill="#00aa76"/>
  </g>
  <path id="check_accept_done_tick_icon_143633" d="M1,6.116,3.337,8.453,8.789,3" transform="translate(3.061 2.23)" fill="none" stroke="#00aa76" stroke-linecap="round" stroke-linejoin="round" stroke-width="1"/>
</svg>
