<svg xmlns="http://www.w3.org/2000/svg" width="17" height="16.803" viewBox="0 0 17 16.803">
  <g id="Group_22173" data-name="Group 22173" transform="translate(16895.498 355)">
    <path id="Path_6366" data-name="Path 6366" d="M16.923,357.449l-1.087-1.743a.711.711,0,0,0-.648-.368H14.41l-.6-1.525H3.192l-.6,1.525H1.813a.711.711,0,0,0-.648.368L.077,357.449a.767.767,0,0,0,.1.827,1.114,1.114,0,0,0,.871.391h14.9a1.115,1.115,0,0,0,.871-.391A.768.768,0,0,0,16.923,357.449Z" transform="translate(-16895.498 -696.863)" fill="#5f5f5f"/>
    <path id="Path_6367" data-name="Path 6367" d="M185.721,19.372l-1.585-3.945a1.272,1.272,0,0,0-2.361,0L180.621,18.3l-.432,1.066h0l0,.009Z" transform="translate(-17069.955 -369.629)" fill="#5f5f5f"/>
    <path id="Path_6368" data-name="Path 6368" d="M124.161,217.059l0,.009h9.421l-1-2.716h-7.419l-.726,1.971-.274.735Z" transform="translate(-17015.898 -562.275)" fill="#5f5f5f"/>
  </g>
</svg>
