<svg xmlns="http://www.w3.org/2000/svg" width="20" height="16.508" viewBox="0 0 20 16.508">
  <g id="Group_22176" data-name="Group 22176" transform="translate(16663 355.107)">
    <path id="Shape" d="M13.236,4.853V3.236A3.273,3.273,0,0,0,9.927,0H3.309A3.273,3.273,0,0,0,0,3.236V4.853" transform="translate(-16662 -344.453)" fill="none" stroke="#5f5f5f" stroke-linecap="round" stroke-linejoin="round" stroke-miterlimit="10" stroke-width="2"/>
    <ellipse id="Oval" cx="3.309" cy="3.236" rx="3.309" ry="3.236" transform="translate(-16658.748 -354)" fill="none" stroke="#5f5f5f" stroke-linecap="round" stroke-linejoin="round" stroke-miterlimit="10" stroke-width="2"/>
    <path id="Shape-2" data-name="Shape" d="M2.482,4.748V3.13A3.249,3.249,0,0,0,0,0" transform="translate(-16646.482 -344.348)" fill="none" stroke="#5f5f5f" stroke-linecap="round" stroke-linejoin="round" stroke-miterlimit="10" stroke-width="2"/>
    <path id="Shape-3" data-name="Shape" d="M0,0A3.25,3.25,0,0,1,2.488,3.134,3.25,3.25,0,0,1,0,6.269" transform="translate(-16649.75 -353.895)" fill="none" stroke="#5f5f5f" stroke-linecap="round" stroke-linejoin="round" stroke-miterlimit="10" stroke-width="2"/>
  </g>
</svg>
