<svg xmlns="http://www.w3.org/2000/svg" width="28.783" height="24.529" viewBox="0 0 28.783 24.529">
  <g id="_1112_sy_m" data-name="1112_sy_m" transform="translate(-13.209 -14.748)">
    <path id="Path_6326" data-name="Path 6326" d="M31.995,16H23.839a9.229,9.229,0,0,0-9.009,6.492,8.871,8.871,0,0,0,8.252,11.264h.358v3.4a.853.853,0,0,0,1.485.564l3-3.411a1.527,1.527,0,0,1,1.155-.55h2.283a9.242,9.242,0,0,0,9.009-6.492A8.871,8.871,0,0,0,31.995,16Z" transform="translate(0)" fill="none" stroke="#5f5f5f" stroke-linecap="round" stroke-linejoin="round" stroke-width="2.5"/>
    <g id="Group_20319" data-name="Group 20319" transform="translate(23.678 21.136)">
      <line id="Line_263" data-name="Line 263" x2="7.775" transform="translate(0 3.901)" fill="none" stroke="#5f5f5f" stroke-linecap="round" stroke-linejoin="round" stroke-width="1.5"/>
      <line id="Line_264" data-name="Line 264" y2="7.789" transform="translate(3.888)" fill="none" stroke="#5f5f5f" stroke-linecap="round" stroke-linejoin="round" stroke-width="1.5"/>
    </g>
  </g>
</svg>
