<svg xmlns="http://www.w3.org/2000/svg" width="22.432" height="26.465" viewBox="0 0 22.432 26.465">
  <g id="チェックシートのアイコン" transform="translate(-39.02)">
    <path id="Path_6443" data-name="Path 6443" d="M60.071,0H39.02V24.031a2.436,2.436,0,0,0,2.433,2.433H59.018a2.436,2.436,0,0,0,2.433-2.433V0ZM40.4,3.5V1.38H60.071V3.5H40.4ZM59.018,25.085H41.453A1.053,1.053,0,0,1,40.4,24.031V4.606H60.071V24.031A1.053,1.053,0,0,1,59.018,25.085Z" fill="#4b4b4b"/>
    <path id="Path_6444" data-name="Path 6444" d="M122.679,138.389l0,0-1.186-1.186-.731.731-.015.015h0l0,0,1.939,1.939,2.96-2.993-.751-.751Z" transform="translate(-77.494 -129.114)" fill="#4b4b4b"/>
    <path id="Path_6445" data-name="Path 6445" d="M285.144,147.566v0h0v.007h5.485v-.74h-5.485Z" transform="translate(-233.402 -139.246)" fill="#4b4b4b"/>
    <path id="Path_6446" data-name="Path 6446" d="M285.144,255.328v0h0v.007h5.485v-.74h-5.485Z" transform="translate(-233.402 -241.438)" fill="#4b4b4b"/>
    <path id="Path_6447" data-name="Path 6447" d="M122.675,353.921l-1.169-1.169-.012-.012h0l-.005,0-.744.744,0,0h0l0,0,1.939,1.939,2.96-2.993-.751-.751Z" transform="translate(-77.494 -333.502)" fill="#4b4b4b"/>
    <path id="Path_6448" data-name="Path 6448" d="M287.887,192.757l-2.736-.007-.007.733h2.736Z" transform="translate(-233.402 -182.787)" fill="#4b4b4b"/>
    <path id="Path_6449" data-name="Path 6449" d="M124.891,243.923h0l0,0-2.185,2.214-.027.027-1.175-1.175-.006-.006h0l-.005-.005-.737.737-.009.009h0l0,.005,1.939,1.939,2.934-2.967.021-.021h0l0-.005-.744-.744Z" transform="translate(-77.494 -231.31)" fill="#4b4b4b"/>
    <path id="Path_6450" data-name="Path 6450" d="M287.887,300.523l-2.736-.007-.007.733h2.736Z" transform="translate(-233.402 -284.983)" fill="#4b4b4b"/>
    <path id="Path_6451" data-name="Path 6451" d="M285.151,362.359h-.007v.733h0v.007h5.485v-.74h-5.478Z" transform="translate(-233.402 -343.629)" fill="#4b4b4b"/>
    <path id="Path_6452" data-name="Path 6452" d="M285.144,409.007h2.736l.007-.726-2.736-.007Z" transform="translate(-233.402 -387.171)" fill="#4b4b4b"/>
  </g>
</svg>
