<svg xmlns="http://www.w3.org/2000/svg" width="30" height="30" viewBox="0 0 30 30">
  <g id="Group_20499" data-name="Group 20499" transform="translate(-262 -311)">
    <circle id="Ellipse_2930" data-name="Ellipse 2930" cx="15" cy="15" r="15" transform="translate(262 311)" fill="#57bd37"/>
    <g id="_520_s_f" data-name="520_s_f" transform="translate(266.502 315.528)">
      <path id="Path_6379" data-name="Path 6379" d="M8.436,8c-.378.069-.407.578-.378.863A12.712,12.712,0,0,0,20.235,20.995c.264,0,.814-.1.814-.382" transform="translate(-4.05 -4.025)" fill="none" stroke="#fff" stroke-linecap="round" stroke-miterlimit="10" stroke-width="1"/>
      <path id="Path_6380" data-name="Path 6380" d="M21.64,26.41A14.9,14.9,0,0,0,24.588,29.3" transform="translate(-12.89 -17.1)" fill="none" stroke="#fff" stroke-linecap="round" stroke-miterlimit="10" stroke-width="1"/>
      <path id="Path_6381" data-name="Path 6381" d="M32.455,27.8,28.8,26.98,27.28,28.485" transform="translate(-15.582 -16.284)" fill="none" stroke="#fff" stroke-linecap="round" stroke-linejoin="round" stroke-width="1"/>
      <path id="Path_6382" data-name="Path 6382" d="M18.027,8l.822,3.658L17.36,13.2" transform="translate(-8.611 -4.005)" fill="none" stroke="#fff" stroke-linecap="round" stroke-linejoin="round" stroke-width="1"/>
      <line id="Line_342" data-name="Line 342" x2="4.913" transform="translate(4.409 3.995)" fill="none" stroke="#fff" stroke-linecap="round" stroke-miterlimit="10" stroke-width="1"/>
      <line id="Line_343" data-name="Line 343" y2="4.913" transform="translate(16.977 11.57)" fill="none" stroke="#fff" stroke-linecap="round" stroke-miterlimit="10" stroke-width="1"/>
    </g>
  </g>
</svg>
