<svg xmlns="http://www.w3.org/2000/svg" width="19.861" height="19.86" viewBox="0 0 19.861 19.86">
  <g id="グループ_21513" data-name="グループ 21513" transform="translate(-19.523 -3.972)">
    <g id="グループ_21462" data-name="グループ 21462" transform="translate(3.44 3.972)">
      <g id="グループ_21142" data-name="グループ 21142" transform="translate(16.083)">
        <g id="パス_6432" data-name="パス 6432" fill="#fff">
          <path d="M 14.29959583282471 19.36055564880371 L 5.560956001281738 19.36055564880371 C 2.770335912704468 19.36055564880371 0.4999959170818329 17.0902156829834 0.4999959170818329 14.29959583282471 L 0.4999959170818329 5.560956001281738 C 0.4999959170818329 2.770335912704468 2.770335912704468 0.4999959170818329 5.560956001281738 0.4999959170818329 L 14.29959583282471 0.4999959170818329 C 17.0902156829834 0.4999959170818329 19.36055564880371 2.770335912704468 19.36055564880371 5.560956001281738 L 19.36055564880371 14.29959583282471 C 19.36055564880371 17.0902156829834 17.0902156829834 19.36055564880371 14.29959583282471 19.36055564880371 Z" stroke="none"/>
          <path d="M 5.560956001281738 0.9999961853027344 C 3.046035766601562 0.9999961853027344 0.9999961853027344 3.046035766601562 0.9999961853027344 5.560956001281738 L 0.9999961853027344 14.29959583282471 C 0.9999961853027344 16.81451606750488 3.046035766601562 18.86055564880371 5.560956001281738 18.86055564880371 L 14.29959583282471 18.86055564880371 C 16.81451606750488 18.86055564880371 18.86055564880371 16.81451606750488 18.86055564880371 14.29959583282471 L 18.86055564880371 5.560956001281738 C 18.86055564880371 3.046035766601562 16.81451606750488 0.9999961853027344 14.29959583282471 0.9999961853027344 L 5.560956001281738 0.9999961853027344 M 5.560956001281738 -3.814697265625e-06 L 14.29959583282471 -3.814697265625e-06 C 17.37082672119141 -3.814697265625e-06 19.86055564880371 2.489725112915039 19.86055564880371 5.560956001281738 L 19.86055564880371 14.29959583282471 C 19.86055564880371 17.37082672119141 17.37082672119141 19.86055564880371 14.29959583282471 19.86055564880371 L 5.560956001281738 19.86055564880371 C 2.489725112915039 19.86055564880371 -3.814697265625e-06 17.37082672119141 -3.814697265625e-06 14.29959583282471 L -3.814697265625e-06 5.560956001281738 C -3.814697265625e-06 2.489725112915039 2.489725112915039 -3.814697265625e-06 5.560956001281738 -3.814697265625e-06 Z" stroke="none" fill="#ee9b01"/>
        </g>
        <g id="豆電球のアイコン" transform="translate(6.106 3.958)">
          <path id="パス_6420" data-name="パス 6420" d="M96,0A3.821,3.821,0,0,0,93.89,7.011c.6.4.658.7.658,1.441h2.9c0-.744.054-1.042.658-1.441A3.821,3.821,0,0,0,96,0Z" transform="translate(-92.172 0)" fill="#ee9b01"/>
          <path id="パス_6421" data-name="パス 6421" d="M187.863,383.781h-2.595a.362.362,0,1,0,0,.724h2.595a.362.362,0,1,0,0-.724Z" transform="translate(-182.741 -374.828)" fill="#ee9b01"/>
          <path id="パス_6422" data-name="パス 6422" d="M187.863,434.906h-2.595a.362.362,0,0,0,0,.724h2.595a.362.362,0,1,0,0-.724Z" transform="translate(-182.741 -424.761)" fill="#ee9b01"/>
          <path id="パス_6423" data-name="パス 6423" d="M222.268,491.642a.926.926,0,0,0,.815-.486h-1.63A.926.926,0,0,0,222.268,491.642Z" transform="translate(-218.435 -479.698)" fill="#ee9b01"/>
        </g>
      </g>
    </g>
  </g>
</svg>
