<svg xmlns="http://www.w3.org/2000/svg" width="19.861" height="19.86" viewBox="0 0 19.861 19.86">
  <g id="グループ_21511" data-name="グループ 21511" transform="translate(-19.523 -3.972)">
    <g id="グループ_21462" data-name="グループ 21462" transform="translate(13.759 3.972)">
      <g id="グループ_21142" data-name="グループ 21142" transform="translate(5.763)">
        <g id="パス_6432" data-name="パス 6432" fill="#fff">
          <path d="M 14.29959583282471 19.36055564880371 L 5.560956001281738 19.36055564880371 C 2.770335912704468 19.36055564880371 0.4999959170818329 17.0902156829834 0.4999959170818329 14.29959583282471 L 0.4999959170818329 5.560956001281738 C 0.4999959170818329 2.770335912704468 2.770335912704468 0.4999959170818329 5.560956001281738 0.4999959170818329 L 14.29959583282471 0.4999959170818329 C 17.0902156829834 0.4999959170818329 19.36055564880371 2.770335912704468 19.36055564880371 5.560956001281738 L 19.36055564880371 14.29959583282471 C 19.36055564880371 17.0902156829834 17.0902156829834 19.36055564880371 14.29959583282471 19.36055564880371 Z" stroke="none"/>
          <path d="M 5.560956001281738 0.9999961853027344 C 3.046035766601562 0.9999961853027344 0.9999961853027344 3.046035766601562 0.9999961853027344 5.560956001281738 L 0.9999961853027344 14.29959583282471 C 0.9999961853027344 16.81451606750488 3.046035766601562 18.86055564880371 5.560956001281738 18.86055564880371 L 14.29959583282471 18.86055564880371 C 16.81451606750488 18.86055564880371 18.86055564880371 16.81451606750488 18.86055564880371 14.29959583282471 L 18.86055564880371 5.560956001281738 C 18.86055564880371 3.046035766601562 16.81451606750488 0.9999961853027344 14.29959583282471 0.9999961853027344 L 5.560956001281738 0.9999961853027344 M 5.560956001281738 -3.814697265625e-06 L 14.29959583282471 -3.814697265625e-06 C 17.37082672119141 -3.814697265625e-06 19.86055564880371 2.489725112915039 19.86055564880371 5.560956001281738 L 19.86055564880371 14.29959583282471 C 19.86055564880371 17.37082672119141 17.37082672119141 19.86055564880371 14.29959583282471 19.86055564880371 L 5.560956001281738 19.86055564880371 C 2.489725112915039 19.86055564880371 -3.814697265625e-06 17.37082672119141 -3.814697265625e-06 14.29959583282471 L -3.814697265625e-06 5.560956001281738 C -3.814697265625e-06 2.489725112915039 2.489725112915039 -3.814697265625e-06 5.560956001281738 -3.814697265625e-06 Z" stroke="none" fill="#e27e55"/>
        </g>
        <path id="パス_6403" data-name="パス 6403" d="M203.014,9.365a.579.579,0,0,0,.165.307.439.439,0,0,0,.33.147A.45.45,0,0,0,204,9.365l.989-7.354a4.565,4.565,0,0,0,.025-.552,1.5,1.5,0,0,0-.393-1.006A1.4,1.4,0,0,0,203.509,0a1.371,1.371,0,0,0-1.129.466,1.516,1.516,0,0,0-.38.994,4.98,4.98,0,0,0,.025.552Z" transform="translate(-193.492 3.07)" fill="#e27e55"/>
        <path id="パス_6404" data-name="パス 6404" d="M203.714,403.044a1.611,1.611,0,0,0-2.18.012,1.4,1.4,0,0,0-.443,1.046,1.456,1.456,0,0,0,.443,1.046,1.484,1.484,0,0,0,1.09.443,1.506,1.506,0,0,0,1.09-.431,1.484,1.484,0,0,0,0-2.116Z" transform="translate(-192.606 -388.22)" fill="#e27e55"/>
      </g>
    </g>
  </g>
</svg>
