<svg xmlns="http://www.w3.org/2000/svg" width="39.971" height="40" viewBox="0 0 39.971 40">
  <g id="求人の無料アイコン1" transform="translate(-0.184 0)">
    <path id="Path_6410" data-name="Path 6410" d="M135.6,248.432a6.964,6.964,0,0,1-7.988,0,8.3,8.3,0,0,0-3.941,3.667c-.986,1.752-.213,4.231,1.492,4.231h12.887c1.705,0,2.478-2.478,1.491-4.231A8.294,8.294,0,0,0,135.6,248.432Z" transform="translate(-113.289 -228.923)" fill="#fff"/>
    <path id="Path_6411" data-name="Path 6411" d="M169.024,100.811a5.269,5.269,0,0,0,5.269-5.269V94.279a5.269,5.269,0,1,0-10.539,0v1.262A5.269,5.269,0,0,0,169.024,100.811Z" transform="translate(-150.695 -81.995)" fill="#fff"/>
    <path id="Path_6412" data-name="Path 6412" d="M39.024,34.525,33.1,28.753a18.166,18.166,0,1,0-4.159,4.16l5.77,5.924A2.809,2.809,0,0,0,39.132,39,2.866,2.866,0,0,0,39.024,34.525Zm-31-6.043a14.6,14.6,0,1,1,20.647,0A14.6,14.6,0,0,1,8.019,28.482Z" transform="translate(0)" fill="#fff"/>
  </g>
</svg>
