<svg xmlns="http://www.w3.org/2000/svg" width="19.861" height="19.86" viewBox="0 0 19.861 19.86">
  <g id="グループ_21516" data-name="グループ 21516" transform="translate(-19.523 -3.972)">
    <g id="グループ_21462" data-name="グループ 21462" transform="translate(13.759 3.972)">
      <g id="グループ_21142" data-name="グループ 21142" transform="translate(5.763)">
        <g id="パス_6432" data-name="パス 6432" fill="#fff">
          <path d="M 14.29959583282471 19.36055564880371 L 5.560956001281738 19.36055564880371 C 2.770335912704468 19.36055564880371 0.4999959170818329 17.0902156829834 0.4999959170818329 14.29959583282471 L 0.4999959170818329 5.560956001281738 C 0.4999959170818329 2.770335912704468 2.770335912704468 0.4999959170818329 5.560956001281738 0.4999959170818329 L 14.29959583282471 0.4999959170818329 C 17.0902156829834 0.4999959170818329 19.36055564880371 2.770335912704468 19.36055564880371 5.560956001281738 L 19.36055564880371 14.29959583282471 C 19.36055564880371 17.0902156829834 17.0902156829834 19.36055564880371 14.29959583282471 19.36055564880371 Z" stroke="none"/>
          <path d="M 5.560956001281738 0.9999961853027344 C 3.046035766601562 0.9999961853027344 0.9999961853027344 3.046035766601562 0.9999961853027344 5.560956001281738 L 0.9999961853027344 14.29959583282471 C 0.9999961853027344 16.81451606750488 3.046035766601562 18.86055564880371 5.560956001281738 18.86055564880371 L 14.29959583282471 18.86055564880371 C 16.81451606750488 18.86055564880371 18.86055564880371 16.81451606750488 18.86055564880371 14.29959583282471 L 18.86055564880371 5.560956001281738 C 18.86055564880371 3.046035766601562 16.81451606750488 0.9999961853027344 14.29959583282471 0.9999961853027344 L 5.560956001281738 0.9999961853027344 M 5.560956001281738 -3.814697265625e-06 L 14.29959583282471 -3.814697265625e-06 C 17.37082672119141 -3.814697265625e-06 19.86055564880371 2.489725112915039 19.86055564880371 5.560956001281738 L 19.86055564880371 14.29959583282471 C 19.86055564880371 17.37082672119141 17.37082672119141 19.86055564880371 14.29959583282471 19.86055564880371 L 5.560956001281738 19.86055564880371 C 2.489725112915039 19.86055564880371 -3.814697265625e-06 17.37082672119141 -3.814697265625e-06 14.29959583282471 L -3.814697265625e-06 5.560956001281738 C -3.814697265625e-06 2.489725112915039 2.489725112915039 -3.814697265625e-06 5.560956001281738 -3.814697265625e-06 Z" stroke="none" fill="#ee9b08"/>
        </g>
        <g id="工事中アイコン_1_" data-name="工事中アイコン (1)" transform="translate(3.361 4.627)">
          <path id="パス_6415" data-name="パス 6415" d="M240.739,43.387a1.176,1.176,0,1,0-.91-1.392A1.176,1.176,0,0,0,240.739,43.387Z" transform="translate(-233.816 -41.061)" fill="#ee9b08"/>
          <path id="パス_6416" data-name="パス 6416" d="M71.149,91.775l-2.293-3.113a.256.256,0,0,0-.462.028l-.465.821a.309.309,0,0,1-.264.171l-1.646-1.334a.407.407,0,0,0,.052-.327l-.5-3.264c-.071-.426-.4-.84-1.186-1.237L62.007,82.4a.559.559,0,0,0-.647.113l-1.347,1.207a.409.409,0,0,0-.082.571.4.4,0,0,0,.39.157l.043-.053,6.331,5.13-1.47,2.236c-.129.2-.043.356.191.356h5.56C71.21,92.118,71.288,91.963,71.149,91.775Zm-9.113-6.654-1.192-.965.93-.592.824.589Zm1.852,1.5.623-.942.582,1.918Z" transform="translate(-58.158 -81.176)" fill="#ee9b08"/>
          <path id="パス_6417" data-name="パス 6417" d="M7.068,220.548l-1.31-1.168.023-.035-2.045-1.652L.1,223.937a.58.58,0,1,0,.955.66l3.246-4,1.568.953s-.729,2.56-.739,2.592a.554.554,0,1,0,1.062.318L7.3,221.71A.917.917,0,0,0,7.068,220.548Z" transform="translate(0 -213.888)" fill="#ee9b08"/>
        </g>
      </g>
    </g>
  </g>
</svg>
