<svg xmlns="http://www.w3.org/2000/svg" width="19.861" height="19.86" viewBox="0 0 19.861 19.86">
  <g id="グループ_21514" data-name="グループ 21514" transform="translate(-19.523 -3.972)">
    <g id="グループ_21462" data-name="グループ 21462" transform="translate(8.6 3.972)">
      <g id="グループ_21474" data-name="グループ 21474" transform="translate(10.923)">
        <g id="パス_6432" data-name="パス 6432" fill="#fff">
          <path d="M 14.29959583282471 19.36055564880371 L 5.560956001281738 19.36055564880371 C 2.770335912704468 19.36055564880371 0.4999959170818329 17.0902156829834 0.4999959170818329 14.29959583282471 L 0.4999959170818329 5.560956001281738 C 0.4999959170818329 2.770335912704468 2.770335912704468 0.4999959170818329 5.560956001281738 0.4999959170818329 L 14.29959583282471 0.4999959170818329 C 17.0902156829834 0.4999959170818329 19.36055564880371 2.770335912704468 19.36055564880371 5.560956001281738 L 19.36055564880371 14.29959583282471 C 19.36055564880371 17.0902156829834 17.0902156829834 19.36055564880371 14.29959583282471 19.36055564880371 Z" stroke="none"/>
          <path d="M 5.560956001281738 0.9999961853027344 C 3.046035766601562 0.9999961853027344 0.9999961853027344 3.046035766601562 0.9999961853027344 5.560956001281738 L 0.9999961853027344 14.29959583282471 C 0.9999961853027344 16.81451606750488 3.046035766601562 18.86055564880371 5.560956001281738 18.86055564880371 L 14.29959583282471 18.86055564880371 C 16.81451606750488 18.86055564880371 18.86055564880371 16.81451606750488 18.86055564880371 14.29959583282471 L 18.86055564880371 5.560956001281738 C 18.86055564880371 3.046035766601562 16.81451606750488 0.9999961853027344 14.29959583282471 0.9999961853027344 L 5.560956001281738 0.9999961853027344 M 5.560956001281738 -3.814697265625e-06 L 14.29959583282471 -3.814697265625e-06 C 17.37082672119141 -3.814697265625e-06 19.86055564880371 2.489725112915039 19.86055564880371 5.560956001281738 L 19.86055564880371 14.29959583282471 C 19.86055564880371 17.37082672119141 17.37082672119141 19.86055564880371 14.29959583282471 19.86055564880371 L 5.560956001281738 19.86055564880371 C 2.489725112915039 19.86055564880371 -3.814697265625e-06 17.37082672119141 -3.814697265625e-06 14.29959583282471 L -3.814697265625e-06 5.560956001281738 C -3.814697265625e-06 2.489725112915039 2.489725112915039 -3.814697265625e-06 5.560956001281738 -3.814697265625e-06 Z" stroke="none" fill="#00aa76"/>
        </g>
        <path id="check_accept_done_tick_icon_143633" d="M1,6.889,3.917,9.806,10.723,3" transform="translate(4.069 3.528)" fill="none" stroke="#00aa76" stroke-linecap="round" stroke-linejoin="round" stroke-width="1"/>
      </g>
    </g>
  </g>
</svg>
