<svg xmlns="http://www.w3.org/2000/svg" width="35" height="25" viewBox="0 0 35 25">
  <g id="Group_21488" data-name="Group 21488" transform="translate(-3316 -6198)">
    <rect id="Rectangle_2452" data-name="Rectangle 2452" width="35" height="25" rx="6" transform="translate(3316 6198)" fill="#fff"/>
    <g id="Group_21462" data-name="Group 21462" transform="translate(3318 6200.31)">
      <g id="Group_21142" data-name="Group 21142" transform="translate(9.351)">
        <g id="Path_6432" data-name="Path 6432" fill="#fff">
          <path d="M 8.314042091369629 11.04728221893311 L 3.233242034912109 11.04728221893311 C 1.726132035255432 11.04728221893311 0.5000020861625671 9.821151733398438 0.5000020861625671 8.314042091369629 L 0.5000020861625671 3.233242034912109 C 0.5000020861625671 1.726132035255432 1.726132035255432 0.5000020861625671 3.233242034912109 0.5000020861625671 L 8.314042091369629 0.5000020861625671 C 9.821151733398438 0.5000020861625671 11.04728221893311 1.726132035255432 11.04728221893311 3.233242034912109 L 11.04728221893311 8.314042091369629 C 11.04728221893311 9.821151733398438 9.821151733398438 11.04728221893311 8.314042091369629 11.04728221893311 Z" stroke="none"/>
          <path d="M 3.233242034912109 1.000001907348633 C 2.001832008361816 1.000001907348633 1.000001907348633 2.001832008361816 1.000001907348633 3.233242034912109 L 1.000001907348633 8.314042091369629 C 1.000001907348633 9.545452117919922 2.001832008361816 10.54728221893311 3.233242034912109 10.54728221893311 L 8.314042091369629 10.54728221893311 C 9.545452117919922 10.54728221893311 10.54728221893311 9.545452117919922 10.54728221893311 8.314042091369629 L 10.54728221893311 3.233242034912109 C 10.54728221893311 2.001832008361816 9.545452117919922 1.000001907348633 8.314042091369629 1.000001907348633 L 3.233242034912109 1.000001907348633 M 3.233242034912109 1.9073486328125e-06 L 8.314042091369629 1.9073486328125e-06 C 10.09971237182617 1.9073486328125e-06 11.54728221893311 1.447571754455566 11.54728221893311 3.233242034912109 L 11.54728221893311 8.314042091369629 C 11.54728221893311 10.09971237182617 10.09971237182617 11.54728221893311 8.314042091369629 11.54728221893311 L 3.233242034912109 11.54728221893311 C 1.447571754455566 11.54728221893311 1.9073486328125e-06 10.09971237182617 1.9073486328125e-06 8.314042091369629 L 1.9073486328125e-06 3.233242034912109 C 1.9073486328125e-06 1.447571754455566 1.447571754455566 1.9073486328125e-06 3.233242034912109 1.9073486328125e-06 Z" stroke="none" fill="#ee9b08"/>
        </g>
        <g id="工事中アイコン_1_" data-name="工事中アイコン (1)" transform="translate(1.954 -38.37)">
          <path id="Path_6415" data-name="Path 6415" d="M240.348,42.413a.684.684,0,1,0-.529-.809A.684.684,0,0,0,240.348,42.413Z" transform="translate(-236.323)" fill="#ee9b08"/>
          <path id="Path_6416" data-name="Path 6416" d="M66.419,87.827l-1.333-1.81a.149.149,0,0,0-.269.016l-.271.478a.18.18,0,0,1-.154.1l-.957-.776a.236.236,0,0,0,.03-.19l-.29-1.9c-.041-.248-.233-.488-.69-.719l-1.383-.65a.325.325,0,0,0-.376.066l-.783.7a.238.238,0,0,0-.048.332.235.235,0,0,0,.227.091l.025-.031,3.681,2.983-.854,1.3c-.075.114-.025.207.111.207h3.233C66.455,88.026,66.5,87.937,66.419,87.827Zm-5.3-3.869-.693-.561.541-.344.479.343Zm1.077.872.362-.548L62.9,85.4Z" transform="translate(-58.866 -40.604)" fill="#ee9b08"/>
          <path id="Path_6417" data-name="Path 6417" d="M4.109,219.353l-.762-.679.013-.02-1.189-.961L.06,221.323a.337.337,0,1,0,.555.384L2.5,219.38l.912.554s-.424,1.488-.43,1.507a.322.322,0,1,0,.618.185l.644-1.6A.533.533,0,0,0,4.109,219.353Z" transform="translate(0 -174.42)" fill="#ee9b08"/>
        </g>
      </g>
      <text id="施工中" transform="translate(15 18.691)" fill="#ee9b08" font-size="6" font-family="YuGothicUI-Regular, Yu Gothic UI"><tspan x="-9" y="0">施工中</tspan></text>
    </g>
  </g>
</svg>
