<svg xmlns="http://www.w3.org/2000/svg" width="19.861" height="19.86" viewBox="0 0 19.861 19.86">
  <g id="グループ_21517" data-name="グループ 21517" transform="translate(-19.523 -3.972)">
    <g id="グループ_21462" data-name="グループ 21462" transform="translate(3.44 3.972)">
      <g id="グループ_21142" data-name="グループ 21142" transform="translate(16.083)">
        <g id="パス_6432" data-name="パス 6432" fill="#fff">
          <path d="M 14.29959583282471 19.36055564880371 L 5.560956001281738 19.36055564880371 C 2.770335912704468 19.36055564880371 0.4999959170818329 17.0902156829834 0.4999959170818329 14.29959583282471 L 0.4999959170818329 5.560956001281738 C 0.4999959170818329 2.770335912704468 2.770335912704468 0.4999959170818329 5.560956001281738 0.4999959170818329 L 14.29959583282471 0.4999959170818329 C 17.0902156829834 0.4999959170818329 19.36055564880371 2.770335912704468 19.36055564880371 5.560956001281738 L 19.36055564880371 14.29959583282471 C 19.36055564880371 17.0902156829834 17.0902156829834 19.36055564880371 14.29959583282471 19.36055564880371 Z" stroke="none"/>
          <path d="M 5.560956001281738 0.9999961853027344 C 3.046035766601562 0.9999961853027344 0.9999961853027344 3.046035766601562 0.9999961853027344 5.560956001281738 L 0.9999961853027344 14.29959583282471 C 0.9999961853027344 16.81451606750488 3.046035766601562 18.86055564880371 5.560956001281738 18.86055564880371 L 14.29959583282471 18.86055564880371 C 16.81451606750488 18.86055564880371 18.86055564880371 16.81451606750488 18.86055564880371 14.29959583282471 L 18.86055564880371 5.560956001281738 C 18.86055564880371 3.046035766601562 16.81451606750488 0.9999961853027344 14.29959583282471 0.9999961853027344 L 5.560956001281738 0.9999961853027344 M 5.560956001281738 -3.814697265625e-06 L 14.29959583282471 -3.814697265625e-06 C 17.37082672119141 -3.814697265625e-06 19.86055564880371 2.489725112915039 19.86055564880371 5.560956001281738 L 19.86055564880371 14.29959583282471 C 19.86055564880371 17.37082672119141 17.37082672119141 19.86055564880371 14.29959583282471 19.86055564880371 L 5.560956001281738 19.86055564880371 C 2.489725112915039 19.86055564880371 -3.814697265625e-06 17.37082672119141 -3.814697265625e-06 14.29959583282471 L -3.814697265625e-06 5.560956001281738 C -3.814697265625e-06 2.489725112915039 2.489725112915039 -3.814697265625e-06 5.560956001281738 -3.814697265625e-06 Z" stroke="none" fill="#e27e55"/>
        </g>
        <g id="Layer_13" transform="translate(3.73 3.742)">
          <path id="パス_6424" data-name="パス 6424" d="M7.094,6C5.385,6,4,8.321,4,8.321s1.385,2.321,3.094,2.321,3.094-2.321,3.094-2.321S8.8,6,7.094,6Zm0,3.868A1.547,1.547,0,1,1,8.641,8.321,1.547,1.547,0,0,1,7.094,9.868Z" transform="translate(-2.453 -3.679)" fill="#e27e55"/>
          <circle id="楕円形_2932" data-name="楕円形 2932" cx="0.86" cy="0.86" r="0.86" transform="translate(3.801 3.777)" fill="#e27e55"/>
          <path id="パス_6425" data-name="パス 6425" d="M4.641,9.282a4.62,4.62,0,0,0,3-1.1l.654.654a1.121,1.121,0,0,0,.219,1.312l1.84,1.84a1.16,1.16,0,1,0,1.641-1.641l-1.84-1.84A1.121,1.121,0,0,0,8.838,8.29l-.654-.654A4.639,4.639,0,1,0,4.641,9.282Zm4.415-.227a.387.387,0,0,1,.547,0l1.84,1.84a.387.387,0,1,1-.547.547L9.056,9.6a.387.387,0,0,1,0-.547l-.273-.273ZM1.906,1.906A3.868,3.868,0,1,1,.774,4.641,3.853,3.853,0,0,1,1.906,1.906Z" transform="translate(0 0)" fill="#e27e55"/>
          <rect id="長方形_2404" data-name="長方形 2404" width="12.04" height="12.04" transform="translate(0.361 0.337)" fill="none"/>
        </g>
      </g>
    </g>
  </g>
</svg>
