<svg xmlns="http://www.w3.org/2000/svg" width="18.974" height="18.997" viewBox="0 0 18.974 18.997">
  <g id="Icon" transform="translate(-2.25 -2.753)">
    <path id="Path_6306" data-name="Path 6306" d="M9.36,14.563,3.97,12.386A2.75,2.75,0,0,1,4.221,7.2L19.03,2.823a1.71,1.71,0,0,1,2.124,2.124c-.925,3.132-2.942,9.959-4.382,14.832a2.75,2.75,0,0,1-5.185.258L9.36,14.563Zm1.473-.358,2.144,5.266a1.25,1.25,0,0,0,2.356-.117c1.44-4.873,3.457-11.7,4.383-14.832a.213.213,0,0,0-.053-.208.21.21,0,0,0-.208-.052L4.646,8.637A1.25,1.25,0,0,0,4.532,11L9.8,13.121,13.4,9.512a.75.75,0,0,1,1.061,1.061l-3.632,3.632Z" fill="#5f5f5f" fill-rule="evenodd"/>
  </g>
</svg>
