<svg xmlns="http://www.w3.org/2000/svg" width="11.375" height="13" viewBox="0 0 11.375 13">
  <path id="Icon_awesome-calendar" data-name="Icon awesome-calendar" d="M.3,4.875H11.07a.306.306,0,0,1,.3.3v6.6A1.219,1.219,0,0,1,10.156,13H1.219A1.219,1.219,0,0,1,0,11.781V5.18A.306.306,0,0,1,.3,4.875Zm11.07-1.117V2.844a1.219,1.219,0,0,0-1.219-1.219H8.938V.3a.306.306,0,0,0-.3-.3H7.617a.306.306,0,0,0-.3.3v1.32H4.063V.3a.306.306,0,0,0-.3-.3H2.742a.306.306,0,0,0-.3.3v1.32H1.219A1.219,1.219,0,0,0,0,2.844v.914a.306.306,0,0,0,.3.3H11.07A.306.306,0,0,0,11.375,3.758Z" fill="#5f5f5f"/>
</svg>
