<svg xmlns="http://www.w3.org/2000/svg" width="13.307" height="13.934" viewBox="0 0 13.307 13.934">
  <g id="円を積み上げたお金アイコン" transform="translate(-11.516)">
    <path id="Path_6460" data-name="Path 6460" d="M15.132,0c-2,0-3.616.788-3.616,1.761V2.7c0,.973,1.619,1.761,3.616,1.761s3.616-.788,3.616-1.761V1.761C18.748.788,17.129,0,15.132,0Zm0,.731c1.76,0,2.884.676,2.884,1.03s-1.123,1.03-2.884,1.03-2.884-.676-2.884-1.03S13.371.731,15.132.731Z" fill="#fff"/>
    <path id="Path_6461" data-name="Path 6461" d="M15.132,163.291a6.725,6.725,0,0,0,1.833-.243,5.1,5.1,0,0,0-1.24,1.648c-.192.016-.39.025-.593.025-2,0-3.616-.79-3.616-1.762v-1.106a.036.036,0,0,1,.031-.036.022.022,0,0,1,.024.011s0,.013.025.073C11.946,162.7,13.4,163.291,15.132,163.291Z" transform="translate(0 -157.412)" fill="#fff"/>
    <path id="Path_6462" data-name="Path 6462" d="M15.232,267.255a4.713,4.713,0,0,0,.042.638c-.046,0-.094,0-.142,0-2,0-3.616-.788-3.616-1.76v-1.109a.036.036,0,0,1,.031-.034.032.032,0,0,1,.031.017c-.009-.011-.017-.017.018.068.35.793,1.8,1.39,3.535,1.39.054,0,.109,0,.162-.005A4.869,4.869,0,0,0,15.232,267.255Z" transform="translate(0 -257.782)" fill="#fff"/>
    <path id="Path_6463" data-name="Path 6463" d="M16.461,370.947a6.914,6.914,0,0,1-1.329.123c-2,0-3.616-.787-3.616-1.762V368.2a.033.033,0,0,1,.031-.033.027.027,0,0,1,.031.018c-.009-.011-.02-.022.018.065.35.8,1.8,1.391,3.535,1.391.171,0,.343-.007.508-.018A5.063,5.063,0,0,0,16.461,370.947Z" transform="translate(0 -358.149)" fill="#fff"/>
    <path id="Path_6464" data-name="Path 6464" d="M288.043,289.53h-.963l-.1.16v.385h1.066v.547h-1.066v.826h-.662v-.826H285.25v-.547h1.066v-.384l-.1-.161h-.962v-.467h.662l-.563-.875h.561l.737,1.146.737-1.146h.561l-.563.875h.662Z" transform="translate(-266.284 -280.345)" fill="#fff"/>
    <path id="Path_6465" data-name="Path 6465" d="M177.132,185.3a3.346,3.346,0,1,1-3.345,3.346,3.35,3.35,0,0,1,3.345-3.346m0-1.115a4.461,4.461,0,1,0,4.461,4.461A4.46,4.46,0,0,0,177.132,184.188Z" transform="translate(-156.77 -179.175)" fill="#fff"/>
  </g>
</svg>
