<svg xmlns="http://www.w3.org/2000/svg" width="18.028" height="23" viewBox="0 0 18.028 23">
  <g id="ゴミ箱の無料アイコン" transform="translate(-55.332)">
    <path id="Path_6405" data-name="Path 6405" d="M64.1,143.893a2.328,2.328,0,0,0,2.32,2.123h10.4a2.329,2.329,0,0,0,2.32-2.123L80.3,128.8H62.952Zm14.925-13.917L77.975,143.79a1.149,1.149,0,0,1-1.151,1.053h-10.4a1.146,1.146,0,0,1-1.15-1.039l-1.056-13.827Z" transform="translate(-7.278 -123.017)" fill="#e54827"/>
    <path id="Path_6406" data-name="Path 6406" d="M162.481,221.865a.478.478,0,0,0,.449-.506l-.455-9.085a.479.479,0,0,0-.956.058l.455,9.085A.478.478,0,0,0,162.481,221.865Z" transform="translate(-101.416 -202.308)" fill="#e54827"/>
    <path id="Path_6407" data-name="Path 6407" d="M245.822,221.868a.478.478,0,0,0,.479-.478V212.3a.479.479,0,0,0-.957,0v9.085A.478.478,0,0,0,245.822,221.868Z" transform="translate(-181.475 -202.31)" fill="#e54827"/>
    <path id="Path_6408" data-name="Path 6408" d="M319.484,221.865a.478.478,0,0,0,.507-.448l.455-9.085a.479.479,0,0,0-.955-.058l-.455,9.085A.478.478,0,0,0,319.484,221.865Z" transform="translate(-251.856 -202.308)" fill="#e54827"/>
    <path id="Path_6409" data-name="Path 6409" d="M72.572,2.9s-1.531-.254-1.947-.381C70.252,2.4,67,1.908,67,1.908l-.122-.867A1.182,1.182,0,0,0,65.723,0H62.969a1.183,1.183,0,0,0-1.151,1.041l-.122.867s-3.255.5-3.629.609c-.416.126-1.948.381-1.948.381a1.1,1.1,0,0,0-.788,1.072v.985H73.361V3.97A1.1,1.1,0,0,0,72.572,2.9ZM65.259,1.744H63.434a.293.293,0,0,1,0-.587h1.825a.293.293,0,1,1,0,.587Z" transform="translate(0)" fill="#e54827"/>
  </g>
</svg>
