<svg xmlns="http://www.w3.org/2000/svg" width="19.861" height="19.86" viewBox="0 0 19.861 19.86">
  <g id="グループ_21518" data-name="グループ 21518" transform="translate(-19.523 -3.972)">
    <g id="グループ_21462" data-name="グループ 21462" transform="translate(8.6 3.972)">
      <g id="グループ_21142" data-name="グループ 21142" transform="translate(10.923)">
        <g id="パス_6432" data-name="パス 6432" fill="#fff">
          <path d="M 14.29959583282471 19.36055564880371 L 5.560956001281738 19.36055564880371 C 2.770335912704468 19.36055564880371 0.4999959170818329 17.0902156829834 0.4999959170818329 14.29959583282471 L 0.4999959170818329 5.560956001281738 C 0.4999959170818329 2.770335912704468 2.770335912704468 0.4999959170818329 5.560956001281738 0.4999959170818329 L 14.29959583282471 0.4999959170818329 C 17.0902156829834 0.4999959170818329 19.36055564880371 2.770335912704468 19.36055564880371 5.560956001281738 L 19.36055564880371 14.29959583282471 C 19.36055564880371 17.0902156829834 17.0902156829834 19.36055564880371 14.29959583282471 19.36055564880371 Z" stroke="none"/>
          <path d="M 5.560956001281738 0.9999961853027344 C 3.046035766601562 0.9999961853027344 0.9999961853027344 3.046035766601562 0.9999961853027344 5.560956001281738 L 0.9999961853027344 14.29959583282471 C 0.9999961853027344 16.81451606750488 3.046035766601562 18.86055564880371 5.560956001281738 18.86055564880371 L 14.29959583282471 18.86055564880371 C 16.81451606750488 18.86055564880371 18.86055564880371 16.81451606750488 18.86055564880371 14.29959583282471 L 18.86055564880371 5.560956001281738 C 18.86055564880371 3.046035766601562 16.81451606750488 0.9999961853027344 14.29959583282471 0.9999961853027344 L 5.560956001281738 0.9999961853027344 M 5.560956001281738 -3.814697265625e-06 L 14.29959583282471 -3.814697265625e-06 C 17.37082672119141 -3.814697265625e-06 19.86055564880371 2.489725112915039 19.86055564880371 5.560956001281738 L 19.86055564880371 14.29959583282471 C 19.86055564880371 17.37082672119141 17.37082672119141 19.86055564880371 14.29959583282471 19.86055564880371 L 5.560956001281738 19.86055564880371 C 2.489725112915039 19.86055564880371 -3.814697265625e-06 17.37082672119141 -3.814697265625e-06 14.29959583282471 L -3.814697265625e-06 5.560956001281738 C -3.814697265625e-06 2.489725112915039 2.489725112915039 -3.814697265625e-06 5.560956001281738 -3.814697265625e-06 Z" stroke="none" fill="#1e7ac1"/>
        </g>
        <g id="グッジョブの手の無料アイコン" transform="translate(4.147 4.194)">
          <path id="パス_6418" data-name="パス 6418" d="M164.552,9.415a1.027,1.027,0,0,0-.031-1.9,1.025,1.025,0,0,0-.661-1.811h-2.345a3.122,3.122,0,0,0,.354-1.73c-.062-.66-.619-1.826-1.476-1.895-.661-.053-.789.195-.789.858,0,0,.007.642.007,1.054,0,.737-.245,1.113-1.112,1.734a4.335,4.335,0,0,0-1.342,1.243v4.895a1.113,1.113,0,0,0,1.113,1.113h4.742c.569,0,1.338-.275,1.338-1.029a1.025,1.025,0,0,0-.3-.724,1.021,1.021,0,0,0,.5-1.808Z" transform="translate(-153.608 -2.073)" fill="#1e7ac1"/>
          <path id="パス_6419" data-name="パス 6419" d="M2.184,202.849H.556a.556.556,0,0,0-.556.557v5.824a.556.556,0,0,0,.556.556H2.184a.557.557,0,0,0,.557-.556v-5.824A.556.556,0,0,0,2.184,202.849Zm-.7,6.053A.515.515,0,1,1,2,208.387.515.515,0,0,1,1.489,208.9Z" transform="translate(0 -198.314)" fill="#1e7ac1"/>
        </g>
      </g>
    </g>
  </g>
</svg>
